<svg width="56" height="61" viewBox="0 0 56 61" fill="none" xmlns="http://www.w3.org/2000/svg">
<path d="M42 20C42 16.134 45.134 13 49 13C52.866 13 56 16.134 56 20V54C56 57.866 52.866 61 49 61C45.134 61 42 57.866 42 54V20Z" fill="white"/>
<path d="M21 7C21 3.13401 24.134 0 28 0C31.866 0 35 3.13401 35 7V54C35 57.866 31.866 61 28 61C24.134 61 21 57.866 21 54V7Z" fill="white"/>
<path d="M0 40C0 36.134 3.13401 33 7 33C10.866 33 14 36.134 14 40V54C14 57.866 10.866 61 7 61C3.13401 61 0 57.866 0 54V40Z" fill="white"/>
</svg>
