<svg width="68" height="74" viewBox="0 0 68 74" fill="none" xmlns="http://www.w3.org/2000/svg">
<path d="M51 24.2623C51 19.5724 54.8056 15.7705 59.5 15.7705C64.1944 15.7705 68 19.5724 68 24.2623V65.5082C68 70.1981 64.1944 74 59.5 74C54.8056 74 51 70.1981 51 65.5082V24.2623Z" fill="black"/>
<path d="M25.5 8.4918C25.5 3.80191 29.3056 0 34 0C38.6944 0 42.5 3.80191 42.5 8.4918V65.5082C42.5 70.1981 38.6944 74 34 74C29.3056 74 25.5 70.1981 25.5 65.5082V8.4918Z" fill="black"/>
<path d="M0 48.5246C0 43.8347 3.80558 40.0328 8.5 40.0328C13.1944 40.0328 17 43.8347 17 48.5246V65.5082C17 70.1981 13.1944 74 8.5 74C3.80558 74 0 70.1981 0 65.5082V48.5246Z" fill="black"/>
</svg>
